<svg width="144" height="144" viewBox="0 0 144 144" fill="none" xmlns="http://www.w3.org/2000/svg">
    <g clip-path="url(#clip0_13_10)">
        <path d="M136.248 0.0993805H6.85714C3.07005 0.0993805 0 3.16943 0 6.95652V134.957C0 138.744 3.07005 141.814 6.85714 141.814H136.248C140.036 141.814 143.106 138.744 143.106 134.957V6.95652C143.106 3.16943 140.036 0.0993805 136.248 0.0993805Z" fill="url(#paint0_linear_13_10)" />
        <path d="M98.2858 97.3911V113.559H29.7144V68.2889H42.1818" stroke="white" stroke-width="2.28571" stroke-miterlimit="10" stroke-linecap="round" stroke-linejoin="round" />
        <path d="M76.5064 104.157C71.7064 104.157 67.1978 103.317 62.9807 101.637C58.7978 99.9223 55.1121 97.4194 51.9235 94.128C48.7692 90.8366 46.3006 86.808 44.5178 82.0423C42.7349 77.2423 41.8435 71.7566 41.8435 65.5851C41.8435 57.4937 43.3521 50.5851 46.3692 44.8594C49.3864 39.0994 53.5178 34.6937 58.7635 31.6423C64.0092 28.5566 69.9235 27.0137 76.5064 27.0137C85.6264 27.0137 92.8435 29.1394 98.1578 33.3908C103.506 37.608 107.124 43.5394 109.009 51.1851L96.3578 53.1908C94.9521 48.8023 92.6549 45.3051 89.4664 42.6994C86.2778 40.0594 82.2149 38.7394 77.2778 38.7394C72.3064 38.6708 68.1749 39.7508 64.8835 41.9794C61.5921 44.208 59.1064 47.3451 57.4264 51.3908C55.7807 55.4366 54.9578 60.168 54.9578 65.5851C54.9578 71.0023 55.7807 75.7166 57.4264 79.728C59.0721 83.7051 61.5407 86.808 64.8321 89.0366C68.1578 91.2651 72.3064 92.4137 77.2778 92.4823C81.0149 92.5166 84.2892 91.848 87.1006 90.4766C89.9121 89.0708 92.2092 86.9623 93.9921 84.1509C95.7749 81.3051 96.9749 77.7566 97.5921 73.5051H84.5292V63.7851H110.758C110.826 64.3337 110.878 65.1394 110.912 66.2023C110.946 67.2651 110.964 67.8994 110.964 68.1051C110.964 75.0994 109.575 81.3223 106.798 86.7737C104.055 92.1908 100.112 96.4423 94.9692 99.528C89.8264 102.614 83.6721 104.157 76.5064 104.157Z" fill="white" />
    </g>
    <defs>
        <linearGradient id="paint0_linear_13_10" x1="0" y1="68.0041" x2="143.106" y2="68.0041" gradientUnits="userSpaceOnUse">
            <stop stop-color="#8490A5" />
            <stop offset="1" stop-color="#0061FF" />
        </linearGradient>
        <clipPath id="clip0_13_10">
            <rect width="144" height="144" fill="white" />
        </clipPath>
    </defs>
</svg>