<svg width="144" height="144" viewBox="0 0 63 63" fill="none" xmlns="http://www.w3.org/2000/svg">
    <rect y="0.0434799" width="62.6087" height="62" rx="3" fill="url(#paint0_linear_1_4)" />
    <path d="M43 42.6086V49.682H13V29.8764H18.4545" stroke="white" stroke-miterlimit="10" stroke-linecap="round" stroke-linejoin="round" />
    <path d="M33.4715 45.5685C31.3715 45.5685 29.399 45.201 27.554 44.466C25.724 43.716 24.1115 42.621 22.7165 41.181C21.3365 39.741 20.2565 37.9785 19.4765 35.8935C18.6965 33.7935 18.3065 31.3935 18.3065 28.6935C18.3065 25.1535 18.9665 22.131 20.2865 19.626C21.6065 17.106 23.414 15.1785 25.709 13.8435C28.004 12.4935 30.5915 11.8185 33.4715 11.8185C37.4615 11.8185 40.619 12.7485 42.944 14.6085C45.284 16.4535 46.8665 19.0485 47.6915 22.3935L42.1565 23.271C41.5415 21.351 40.5365 19.821 39.1415 18.681C37.7465 17.526 35.969 16.9485 33.809 16.9485C31.634 16.9185 29.8265 17.391 28.3865 18.366C26.9465 19.341 25.859 20.7135 25.124 22.4835C24.404 24.2535 24.044 26.3235 24.044 28.6935C24.044 31.0635 24.404 33.126 25.124 34.881C25.844 36.621 26.924 37.9785 28.364 38.9535C29.819 39.9285 31.634 40.431 33.809 40.461C35.444 40.476 36.8765 40.1835 38.1065 39.5835C39.3365 38.9685 40.3415 38.046 41.1215 36.816C41.9015 35.571 42.4265 34.0185 42.6965 32.1585H36.9815V27.906H48.4565C48.4865 28.146 48.509 28.4985 48.524 28.9635C48.539 29.4285 48.5465 29.706 48.5465 29.796C48.5465 32.856 47.939 35.5785 46.724 37.9635C45.524 40.3335 43.799 42.1935 41.549 43.5435C39.299 44.8935 36.6065 45.5685 33.4715 45.5685Z" fill="white" />
    <defs>
        <linearGradient id="paint0_linear_1_4" x1="0" y1="29.7518" x2="62.6087" y2="29.7518" gradientUnits="userSpaceOnUse">
            <stop stop-color="#F9D224" />
            <stop offset="1" stop-color="#FE5A4C" />
        </linearGradient>
    </defs>
</svg>