<svg height="63" viewBox="0 0 205 63" fill="none" xmlns="http://www.w3.org/2000/svg">
    <path d="M102.372 29.682V45.874H96.212L95.464 41.21L94.144 44.554C93.2933 45.2874 92.3107 45.786 91.196 46.05C90.1107 46.3434 88.7613 46.49 87.148 46.49C85.124 46.49 83.2613 46.1674 81.56 45.522C79.888 44.8474 78.436 43.85 77.204 42.53C76.0013 41.21 75.0627 39.582 74.388 37.646C73.7133 35.71 73.376 33.466 73.376 30.914C73.376 28.274 73.7867 25.9567 74.608 23.962C75.4587 21.9674 76.588 20.2954 77.996 18.946C79.404 17.5967 81.032 16.5847 82.88 15.91C84.7573 15.2354 86.7373 14.898 88.82 14.898C90.9907 14.898 92.8973 15.1767 94.54 15.734C96.1827 16.262 97.5613 17.01 98.676 17.978C99.82 18.9167 100.715 20.0314 101.36 21.322C102.005 22.6127 102.401 24.006 102.548 25.502L102.592 25.942H94.672L94.584 25.502C93.9387 22.3047 91.988 20.706 88.732 20.706C87.764 20.706 86.84 20.9114 85.96 21.322C85.1093 21.7034 84.3613 22.3047 83.716 23.126C83.1 23.918 82.6013 24.93 82.22 26.162C81.8387 27.3647 81.648 28.7874 81.648 30.43C81.648 32.3367 81.8387 33.95 82.22 35.27C82.6013 36.5607 83.1147 37.6167 83.76 38.438C84.4053 39.23 85.1533 39.802 86.004 40.154C86.8547 40.506 87.7493 40.682 88.688 40.682C90.2427 40.682 91.5187 40.3007 92.516 39.538C93.5427 38.746 94.3347 37.514 94.892 35.842H88.996V29.682H102.372ZM129.775 33.818C129.775 34.5514 129.731 35.314 129.643 36.106H113.275C113.48 38.0714 113.979 39.406 114.771 40.11C115.563 40.7847 116.516 41.122 117.631 41.122C118.745 41.122 119.64 40.858 120.315 40.33C120.989 39.802 121.4 39.0834 121.547 38.174H129.335C128.66 40.8434 127.281 42.8967 125.199 44.334C123.116 45.7714 120.564 46.49 117.543 46.49C115.871 46.49 114.287 46.2407 112.791 45.742C111.324 45.2434 110.048 44.4807 108.963 43.454C107.877 42.4274 107.012 41.1514 106.367 39.626C105.751 38.0714 105.443 36.2674 105.443 34.214C105.443 32.4834 105.721 30.87 106.279 29.374C106.865 27.8487 107.701 26.5287 108.787 25.414C109.872 24.2994 111.177 23.4194 112.703 22.774C114.257 22.0994 116.017 21.762 117.983 21.762C119.948 21.762 121.664 22.114 123.131 22.818C124.597 23.4927 125.815 24.402 126.783 25.546C127.78 26.6607 128.528 27.9367 129.027 29.374C129.525 30.8114 129.775 32.2927 129.775 33.818ZM117.587 27.13C116.56 27.13 115.695 27.4527 114.991 28.098C114.287 28.7434 113.803 29.7994 113.539 31.266H121.503C121.063 28.5087 119.757 27.13 117.587 27.13ZM156.817 28.142C156.905 28.7287 156.963 29.3887 156.993 30.122C157.022 30.826 157.037 31.6474 157.037 32.586V45.874H149.117V33.906C149.117 33.5247 149.117 33.0407 149.117 32.454C149.117 31.8674 149.087 31.2807 149.029 30.694C148.941 29.5794 148.589 28.714 147.973 28.098C147.357 27.4527 146.447 27.13 145.245 27.13C144.013 27.13 143.015 27.746 142.253 28.978C141.49 30.1807 141.109 32.1167 141.109 34.786V45.874H133.189V22.378H141.109V26.03L143.221 23.126C143.954 22.686 144.746 22.3487 145.597 22.114C146.447 21.8794 147.415 21.762 148.501 21.762C150.935 21.762 152.842 22.3194 154.221 23.434C155.629 24.5194 156.494 26.0887 156.817 28.142ZM169.425 39.01V45.874H161.505V13.534H169.425V32.234L177.697 22.378H186.981L177.037 33.158L187.113 45.874H177.389L171.097 37.162L169.425 39.01ZM193.266 12.83C194.498 12.83 195.48 13.182 196.214 13.886C196.976 14.5607 197.358 15.4994 197.358 16.702C197.358 17.9047 196.976 18.858 196.214 19.562C195.48 20.2367 194.498 20.574 193.266 20.574C192.034 20.574 191.036 20.2367 190.274 19.562C189.54 18.858 189.174 17.9047 189.174 16.702C189.174 15.4994 189.54 14.5607 190.274 13.886C191.036 13.182 192.034 12.83 193.266 12.83ZM189.306 45.874V22.378H197.226V45.874H189.306Z" fill="white" />
    <rect y="0.0434799" width="62.6087" height="62" rx="3" fill="url(#paint0_linear_1_2)" />
    <path d="M43 42.6086V49.682H13V29.8764H18.4545" stroke="white" stroke-miterlimit="10" stroke-linecap="round" stroke-linejoin="round" />
    <path d="M33.4715 45.5685C31.3715 45.5685 29.399 45.201 27.554 44.466C25.724 43.716 24.1115 42.621 22.7165 41.181C21.3365 39.741 20.2565 37.9785 19.4765 35.8935C18.6965 33.7935 18.3065 31.3935 18.3065 28.6935C18.3065 25.1535 18.9665 22.131 20.2865 19.626C21.6065 17.106 23.414 15.1785 25.709 13.8435C28.004 12.4935 30.5915 11.8185 33.4715 11.8185C37.4615 11.8185 40.619 12.7485 42.944 14.6085C45.284 16.4535 46.8665 19.0485 47.6915 22.3935L42.1565 23.271C41.5415 21.351 40.5365 19.821 39.1415 18.681C37.7465 17.526 35.969 16.9485 33.809 16.9485C31.634 16.9185 29.8265 17.391 28.3865 18.366C26.9465 19.341 25.859 20.7135 25.124 22.4835C24.404 24.2535 24.044 26.3235 24.044 28.6935C24.044 31.0635 24.404 33.126 25.124 34.881C25.844 36.621 26.924 37.9785 28.364 38.9535C29.819 39.9285 31.634 40.431 33.809 40.461C35.444 40.476 36.8765 40.1835 38.1065 39.5835C39.3365 38.9685 40.3415 38.046 41.1215 36.816C41.9015 35.571 42.4265 34.0185 42.6965 32.1585H36.9815V27.906H48.4565C48.4865 28.146 48.509 28.4985 48.524 28.9635C48.539 29.4285 48.5465 29.706 48.5465 29.796C48.5465 32.856 47.939 35.5785 46.724 37.9635C45.524 40.3335 43.799 42.1935 41.549 43.5435C39.299 44.8935 36.6065 45.5685 33.4715 45.5685Z" fill="white" />
    <defs>
        <linearGradient id="paint0_linear_1_2" x1="0" y1="29.7518" x2="62.6087" y2="29.7518" gradientUnits="userSpaceOnUse">
            <stop stop-color="#F9D224" />
            <stop offset="1" stop-color="#FE5A4C" />
        </linearGradient>
    </defs>
</svg>