<svg width="181" height="62" viewBox="0 0 181 62" fill="none" xmlns="http://www.w3.org/2000/svg">
<path d="M89.876 15.816C91.636 16.0213 93.2933 16.4467 94.848 17.092C96.4027 17.7373 97.7667 18.6613 98.94 19.864C100.113 21.0373 101.037 22.504 101.712 24.264C102.387 25.9947 102.724 28.048 102.724 30.424C102.724 32.8 102.387 34.912 101.712 36.76C101.037 38.5787 100.113 40.1333 98.94 41.424C97.7667 42.6853 96.4027 43.6827 94.848 44.416C93.2933 45.1493 91.636 45.6187 89.876 45.824C89.1133 45.912 88.4827 45.9707 87.984 46C87.4853 46 86.8253 46 86.004 46H74.52V15.64H86.004C86.8253 15.64 87.4853 15.6547 87.984 15.684C88.4827 15.684 89.1133 15.728 89.876 15.816ZM87.764 39.752C89.7587 39.576 91.372 38.6813 92.604 37.068C93.836 35.4547 94.452 33.284 94.452 30.556C94.452 27.828 93.836 25.7453 92.604 24.308C91.372 22.8707 89.7587 22.064 87.764 21.888C87.2653 21.8293 86.8107 21.8 86.4 21.8C85.9893 21.8 85.4907 21.8 84.904 21.8H82.44V39.84H84.904C85.4907 39.84 85.9893 39.84 86.4 39.84C86.8107 39.84 87.2653 39.8107 87.764 39.752ZM117.641 21.888C119.577 21.888 121.322 22.1813 122.877 22.768C124.432 23.3253 125.752 24.1467 126.837 25.232C127.952 26.3173 128.802 27.6227 129.389 29.148C129.976 30.644 130.269 32.3453 130.269 34.252C130.269 36.1293 129.976 37.8307 129.389 39.356C128.802 40.8813 127.952 42.1867 126.837 43.272C125.752 44.328 124.432 45.1493 122.877 45.736C121.322 46.3227 119.577 46.616 117.641 46.616C115.705 46.616 113.96 46.3227 112.405 45.736C110.85 45.1493 109.516 44.328 108.401 43.272C107.316 42.1867 106.48 40.8813 105.893 39.356C105.306 37.8307 105.013 36.1293 105.013 34.252C105.013 32.3453 105.306 30.644 105.893 29.148C106.48 27.6227 107.316 26.3173 108.401 25.232C109.516 24.1467 110.85 23.3253 112.405 22.768C113.96 22.1813 115.705 21.888 117.641 21.888ZM117.641 41.248C119.049 41.248 120.149 40.676 120.941 39.532C121.762 38.3587 122.173 36.5987 122.173 34.252C122.173 31.876 121.762 30.116 120.941 28.972C120.149 27.828 119.049 27.256 117.641 27.256C116.233 27.256 115.118 27.828 114.297 28.972C113.505 30.116 113.109 31.876 113.109 34.252C113.109 36.5987 113.505 38.3587 114.297 39.532C115.118 40.676 116.233 41.248 117.641 41.248ZM144.748 21.888C146.479 21.888 148.033 22.1373 149.412 22.636C150.791 23.1347 151.964 23.824 152.932 24.704C153.9 25.584 154.648 26.6107 155.176 27.784C155.733 28.928 156.041 30.16 156.1 31.48H148.444C148.268 29.9253 147.828 28.84 147.124 28.224C146.42 27.5787 145.569 27.256 144.572 27.256C143.252 27.256 142.24 27.8133 141.536 28.928C140.832 30.0427 140.48 31.744 140.48 34.032C140.48 36.5547 140.832 38.388 141.536 39.532C142.269 40.676 143.311 41.248 144.66 41.248C145.569 41.248 146.361 40.9253 147.036 40.28C147.711 39.6347 148.165 38.6667 148.4 37.376H156.188C155.983 38.9013 155.528 40.236 154.824 41.38C154.149 42.524 153.284 43.492 152.228 44.284C151.201 45.0467 149.999 45.6187 148.62 46C147.271 46.4107 145.804 46.616 144.22 46.616C142.548 46.616 140.979 46.352 139.512 45.824C138.075 45.296 136.828 44.5187 135.772 43.492C134.716 42.436 133.88 41.16 133.264 39.664C132.677 38.168 132.384 36.452 132.384 34.516C132.384 32.492 132.707 30.7027 133.352 29.148C133.997 27.564 134.877 26.244 135.992 25.188C137.107 24.1027 138.412 23.2813 139.908 22.724C141.404 22.1667 143.017 21.888 144.748 21.888ZM169.208 21.888C170.675 21.888 171.98 22.0787 173.124 22.46C174.268 22.8413 175.251 23.3693 176.072 24.044C176.923 24.6893 177.598 25.4813 178.096 26.42C178.595 27.3293 178.918 28.312 179.064 29.368H171.276C170.895 27.6667 170.044 26.816 168.724 26.816C168.167 26.816 167.712 26.9773 167.36 27.3C167.008 27.6227 166.832 28.0333 166.832 28.532C166.832 28.8547 166.906 29.1627 167.052 29.456C167.228 29.72 167.522 29.984 167.932 30.248C168.343 30.512 168.9 30.776 169.604 31.04C170.338 31.304 171.262 31.568 172.376 31.832C173.432 32.096 174.4 32.4187 175.28 32.8C176.19 33.1813 176.967 33.6653 177.612 34.252C178.258 34.8387 178.756 35.5427 179.108 36.364C179.49 37.156 179.68 38.124 179.68 39.268C179.68 40.5293 179.402 41.6293 178.844 42.568C178.316 43.4773 177.568 44.24 176.6 44.856C175.662 45.4427 174.562 45.8827 173.3 46.176C172.039 46.4693 170.704 46.616 169.296 46.616C166.099 46.616 163.488 45.9707 161.464 44.68C159.44 43.36 158.267 41.3653 157.944 38.696H165.732C165.967 39.6053 166.392 40.3387 167.008 40.896C167.654 41.424 168.402 41.688 169.252 41.688C169.956 41.688 170.543 41.5413 171.012 41.248C171.511 40.9547 171.76 40.5 171.76 39.884C171.76 39.1213 171.335 38.5053 170.484 38.036C169.663 37.5667 168.196 37.0827 166.084 36.584C163.826 36.056 162.066 35.2493 160.804 34.164C159.543 33.0493 158.912 31.48 158.912 29.456C158.912 28.2827 159.147 27.2413 159.616 26.332C160.115 25.3933 160.804 24.6013 161.684 23.956C162.594 23.2813 163.679 22.768 164.94 22.416C166.231 22.064 167.654 21.888 169.208 21.888Z" fill="#FF7B00"/>
<rect width="62.6087" height="62" rx="3" fill="url(#paint0_linear_108_2)"/>
<path d="M43 42.5651V49.6385H13V29.833H18.4545" stroke="#FF7B00" stroke-miterlimit="10" stroke-linecap="round" stroke-linejoin="round"/>
<path d="M33.4715 45.525C31.3715 45.525 29.399 45.1575 27.554 44.4225C25.724 43.6725 24.1115 42.5775 22.7165 41.1375C21.3365 39.6975 20.2565 37.935 19.4765 35.85C18.6965 33.75 18.3065 31.35 18.3065 28.65C18.3065 25.11 18.9665 22.0875 20.2865 19.5825C21.6065 17.0625 23.414 15.135 25.709 13.8C28.004 12.45 30.5915 11.775 33.4715 11.775C37.4615 11.775 40.619 12.705 42.944 14.565C45.284 16.41 46.8665 19.005 47.6915 22.35L42.1565 23.2275C41.5415 21.3075 40.5365 19.7775 39.1415 18.6375C37.7465 17.4825 35.969 16.905 33.809 16.905C31.634 16.875 29.8265 17.3475 28.3865 18.3225C26.9465 19.2975 25.859 20.67 25.124 22.44C24.404 24.21 24.044 26.28 24.044 28.65C24.044 31.02 24.404 33.0825 25.124 34.8375C25.844 36.5775 26.924 37.935 28.364 38.91C29.819 39.885 31.634 40.3875 33.809 40.4175C35.444 40.4325 36.8765 40.14 38.1065 39.54C39.3365 38.925 40.3415 38.0025 41.1215 36.7725C41.9015 35.5275 42.4265 33.975 42.6965 32.115H36.9815V27.8625H48.4565C48.4865 28.1025 48.509 28.455 48.524 28.92C48.539 29.385 48.5465 29.6625 48.5465 29.7525C48.5465 32.8125 47.939 35.535 46.724 37.92C45.524 40.29 43.799 42.15 41.549 43.5C39.299 44.85 36.6065 45.525 33.4715 45.525Z" fill="#FF7B00"/>
<defs>
<linearGradient id="paint0_linear_108_2" x1="0" y1="29.7083" x2="62.6087" y2="29.7083" gradientUnits="userSpaceOnUse">
<stop stop-color="#8490A5"/>
<stop offset="1" stop-color="#0061FF"/>
</linearGradient>
</defs>
</svg>
