<svg width="182" height="62" viewBox="0 0 182 62" fill="none" xmlns="http://www.w3.org/2000/svg">
<path d="M90.5075 15.6466C92.2675 15.8519 93.9248 16.2772 95.4795 16.9226C97.0341 17.5679 98.3981 18.4919 99.5715 19.6946C100.745 20.8679 101.669 22.3346 102.343 24.0946C103.018 25.8252 103.355 27.8786 103.355 30.2546C103.355 32.6306 103.018 34.7426 102.343 36.5906C101.669 38.4092 100.745 39.9639 99.5715 41.2546C98.3981 42.5159 97.0341 43.5132 95.4795 44.2466C93.9248 44.9799 92.2675 45.4492 90.5075 45.6546C89.7448 45.7426 89.1141 45.8012 88.6155 45.8306C88.1168 45.8306 87.4568 45.8306 86.6355 45.8306H75.1515V15.4706H86.6355C87.4568 15.4706 88.1168 15.4852 88.6155 15.5146C89.1141 15.5146 89.7448 15.5586 90.5075 15.6466ZM88.3955 39.5826C90.3901 39.4066 92.0035 38.5119 93.2355 36.8986C94.4675 35.2852 95.0835 33.1146 95.0835 30.3866C95.0835 27.6586 94.4675 25.5759 93.2355 24.1386C92.0035 22.7012 90.3901 21.8946 88.3955 21.7186C87.8968 21.6599 87.4421 21.6306 87.0315 21.6306C86.6208 21.6306 86.1221 21.6306 85.5355 21.6306H83.0715V39.6706H85.5355C86.1221 39.6706 86.6208 39.6706 87.0315 39.6706C87.4421 39.6706 87.8968 39.6412 88.3955 39.5826ZM118.273 21.7186C120.209 21.7186 121.954 22.0119 123.509 22.5986C125.063 23.1559 126.383 23.9772 127.469 25.0626C128.583 26.1479 129.434 27.4532 130.021 28.9786C130.607 30.4746 130.901 32.1759 130.901 34.0826C130.901 35.9599 130.607 37.6612 130.021 39.1866C129.434 40.7119 128.583 42.0172 127.469 43.1026C126.383 44.1586 125.063 44.9799 123.509 45.5666C121.954 46.1532 120.209 46.4466 118.273 46.4466C116.337 46.4466 114.591 46.1532 113.037 45.5666C111.482 44.9799 110.147 44.1586 109.033 43.1026C107.947 42.0172 107.111 40.7119 106.525 39.1866C105.938 37.6612 105.645 35.9599 105.645 34.0826C105.645 32.1759 105.938 30.4746 106.525 28.9786C107.111 27.4532 107.947 26.1479 109.033 25.0626C110.147 23.9772 111.482 23.1559 113.037 22.5986C114.591 22.0119 116.337 21.7186 118.273 21.7186ZM118.273 41.0786C119.681 41.0786 120.781 40.5066 121.573 39.3626C122.394 38.1892 122.805 36.4292 122.805 34.0826C122.805 31.7066 122.394 29.9466 121.573 28.8026C120.781 27.6586 119.681 27.0866 118.273 27.0866C116.865 27.0866 115.75 27.6586 114.929 28.8026C114.137 29.9466 113.741 31.7066 113.741 34.0826C113.741 36.4292 114.137 38.1892 114.929 39.3626C115.75 40.5066 116.865 41.0786 118.273 41.0786ZM145.38 21.7186C147.11 21.7186 148.665 21.9679 150.044 22.4666C151.422 22.9652 152.596 23.6546 153.564 24.5346C154.532 25.4146 155.28 26.4412 155.808 27.6146C156.365 28.7586 156.673 29.9906 156.732 31.3106H149.076C148.9 29.7559 148.46 28.6706 147.756 28.0546C147.052 27.4092 146.201 27.0866 145.204 27.0866C143.884 27.0866 142.872 27.6439 142.168 28.7586C141.464 29.8732 141.112 31.5746 141.112 33.8626C141.112 36.3852 141.464 38.2186 142.168 39.3626C142.901 40.5066 143.942 41.0786 145.292 41.0786C146.201 41.0786 146.993 40.7559 147.668 40.1106C148.342 39.4652 148.797 38.4972 149.032 37.2066H156.82C156.614 38.7319 156.16 40.0666 155.456 41.2106C154.781 42.3546 153.916 43.3226 152.86 44.1146C151.833 44.8772 150.63 45.4492 149.252 45.8306C147.902 46.2412 146.436 46.4466 144.852 46.4466C143.18 46.4466 141.61 46.1826 140.144 45.6546C138.706 45.1266 137.46 44.3492 136.404 43.3226C135.348 42.2666 134.512 40.9906 133.896 39.4946C133.309 37.9986 133.016 36.2826 133.016 34.3466C133.016 32.3226 133.338 30.5332 133.984 28.9786C134.629 27.3946 135.509 26.0746 136.624 25.0186C137.738 23.9332 139.044 23.1119 140.54 22.5546C142.036 21.9972 143.649 21.7186 145.38 21.7186ZM169.84 21.7186C171.306 21.7186 172.612 21.9092 173.756 22.2906C174.9 22.6719 175.882 23.1999 176.704 23.8746C177.554 24.5199 178.229 25.3119 178.728 26.2506C179.226 27.1599 179.549 28.1426 179.696 29.1986H171.908C171.526 27.4972 170.676 26.6466 169.356 26.6466C168.798 26.6466 168.344 26.8079 167.992 27.1306C167.64 27.4532 167.464 27.8639 167.464 28.3626C167.464 28.6852 167.537 28.9932 167.684 29.2866C167.86 29.5506 168.153 29.8146 168.564 30.0786C168.974 30.3426 169.532 30.6066 170.236 30.8706C170.969 31.1346 171.893 31.3986 173.008 31.6626C174.064 31.9266 175.032 32.2492 175.912 32.6306C176.821 33.0119 177.598 33.4959 178.244 34.0826C178.889 34.6692 179.388 35.3732 179.74 36.1946C180.121 36.9866 180.312 37.9546 180.312 39.0986C180.312 40.3599 180.033 41.4599 179.476 42.3986C178.948 43.3079 178.2 44.0706 177.232 44.6866C176.293 45.2732 175.193 45.7132 173.932 46.0066C172.67 46.2999 171.336 46.4466 169.928 46.4466C166.73 46.4466 164.12 45.8012 162.096 44.5106C160.072 43.1906 158.898 41.1959 158.576 38.5266H166.364C166.598 39.4359 167.024 40.1692 167.64 40.7266C168.285 41.2546 169.033 41.5186 169.884 41.5186C170.588 41.5186 171.174 41.3719 171.644 41.0786C172.142 40.7852 172.392 40.3306 172.392 39.7146C172.392 38.9519 171.966 38.3359 171.116 37.8666C170.294 37.3972 168.828 36.9132 166.716 36.4146C164.457 35.8866 162.697 35.0799 161.436 33.9946C160.174 32.8799 159.544 31.3106 159.544 29.2866C159.544 28.1132 159.778 27.0719 160.248 26.1626C160.746 25.2239 161.436 24.4319 162.316 23.7866C163.225 23.1119 164.31 22.5986 165.572 22.2466C166.862 21.8946 168.285 21.7186 169.84 21.7186Z" fill="white"/>
<rect width="62.2077" height="62" rx="3" fill="url(#paint0_linear_108_9)"/>
<path d="M42.7246 42.5651V49.6385H12.9167V29.833H18.3364" stroke="white" stroke-miterlimit="10" stroke-linecap="round" stroke-linejoin="round"/>
<path d="M33.3629 45.525C31.2629 45.525 29.2904 45.1575 27.4454 44.4225C25.6154 43.6725 24.0029 42.5775 22.6079 41.1375C21.2279 39.6975 20.1479 37.935 19.3679 35.85C18.5879 33.75 18.1979 31.35 18.1979 28.65C18.1979 25.11 18.8579 22.0875 20.1779 19.5825C21.4979 17.0625 23.3054 15.135 25.6004 13.8C27.8954 12.45 30.4829 11.775 33.3629 11.775C37.3529 11.775 40.5104 12.705 42.8354 14.565C45.1754 16.41 46.7579 19.005 47.5829 22.35L42.0479 23.2275C41.4329 21.3075 40.4279 19.7775 39.0329 18.6375C37.6379 17.4825 35.8604 16.905 33.7004 16.905C31.5254 16.875 29.7179 17.3475 28.2779 18.3225C26.8379 19.2975 25.7504 20.67 25.0154 22.44C24.2954 24.21 23.9354 26.28 23.9354 28.65C23.9354 31.02 24.2954 33.0825 25.0154 34.8375C25.7354 36.5775 26.8154 37.935 28.2554 38.91C29.7104 39.885 31.5254 40.3875 33.7004 40.4175C35.3354 40.4325 36.7679 40.14 37.9979 39.54C39.2279 38.925 40.2329 38.0025 41.0129 36.7725C41.7929 35.5275 42.3179 33.975 42.5879 32.115H36.8729V27.8625H48.3479C48.3779 28.1025 48.4004 28.455 48.4154 28.92C48.4304 29.385 48.4379 29.6625 48.4379 29.7525C48.4379 32.8125 47.8304 35.535 46.6154 37.92C45.4154 40.29 43.6904 42.15 41.4404 43.5C39.1904 44.85 36.4979 45.525 33.3629 45.525Z" fill="white"/>
<defs>
<linearGradient id="paint0_linear_108_9" x1="0" y1="29.7083" x2="62.2077" y2="29.7083" gradientUnits="userSpaceOnUse">
<stop stop-color="#F9D224"/>
<stop offset="1" stop-color="#FE5A4C"/>
</linearGradient>
</defs>
</svg>
