<svg width="205" height="62" viewBox="0 0 205 62" fill="none" xmlns="http://www.w3.org/2000/svg">
<path d="M102.372 29.6385V45.8306H96.212L95.464 41.1666L94.144 44.5106C93.2933 45.2439 92.3107 45.7426 91.196 46.0066C90.1107 46.2999 88.7613 46.4466 87.148 46.4466C85.124 46.4466 83.2613 46.1239 81.56 45.4786C79.888 44.8039 78.436 43.8066 77.204 42.4866C76.0013 41.1666 75.0627 39.5386 74.388 37.6026C73.7133 35.6666 73.376 33.4226 73.376 30.8706C73.376 28.2306 73.7867 25.9132 74.608 23.9186C75.4587 21.9239 76.588 20.2519 77.996 18.9025C79.404 17.5532 81.032 16.5412 82.88 15.8665C84.7573 15.1919 86.7373 14.8545 88.82 14.8545C90.9907 14.8545 92.8973 15.1332 94.54 15.6905C96.1827 16.2185 97.5613 16.9665 98.676 17.9346C99.82 18.8732 100.715 19.9879 101.36 21.2785C102.005 22.5692 102.401 23.9626 102.548 25.4585L102.592 25.8986H94.672L94.584 25.4585C93.9387 22.2612 91.988 20.6625 88.732 20.6625C87.764 20.6625 86.84 20.8679 85.96 21.2785C85.1093 21.6599 84.3613 22.2612 83.716 23.0826C83.1 23.8746 82.6013 24.8866 82.22 26.1186C81.8387 27.3212 81.648 28.7439 81.648 30.3866C81.648 32.2932 81.8387 33.9066 82.22 35.2266C82.6013 36.5172 83.1147 37.5732 83.76 38.3946C84.4053 39.1866 85.1533 39.7586 86.004 40.1106C86.8547 40.4626 87.7493 40.6386 88.688 40.6386C90.2427 40.6386 91.5187 40.2572 92.516 39.4946C93.5427 38.7026 94.3347 37.4706 94.892 35.7986H88.996V29.6385H102.372ZM129.775 33.7746C129.775 34.5079 129.731 35.2706 129.643 36.0626H113.275C113.48 38.0279 113.979 39.3626 114.771 40.0666C115.563 40.7412 116.516 41.0786 117.631 41.0786C118.745 41.0786 119.64 40.8146 120.315 40.2866C120.989 39.7586 121.4 39.0399 121.547 38.1306H129.335C128.66 40.7999 127.281 42.8532 125.199 44.2906C123.116 45.7279 120.564 46.4466 117.543 46.4466C115.871 46.4466 114.287 46.1972 112.791 45.6986C111.324 45.1999 110.048 44.4372 108.963 43.4106C107.877 42.3839 107.012 41.1079 106.367 39.5826C105.751 38.0279 105.443 36.2239 105.443 34.1706C105.443 32.4399 105.721 30.8266 106.279 29.3305C106.865 27.8052 107.701 26.4852 108.787 25.3705C109.872 24.2559 111.177 23.3759 112.703 22.7305C114.257 22.0559 116.017 21.7185 117.983 21.7185C119.948 21.7185 121.664 22.0705 123.131 22.7745C124.597 23.4492 125.815 24.3585 126.783 25.5026C127.78 26.6172 128.528 27.8932 129.027 29.3305C129.525 30.7679 129.775 32.2492 129.775 33.7746ZM117.587 27.0865C116.56 27.0865 115.695 27.4092 114.991 28.0546C114.287 28.6999 113.803 29.7559 113.539 31.2226H121.503C121.063 28.4652 119.757 27.0865 117.587 27.0865ZM156.817 28.0985C156.905 28.6852 156.963 29.3452 156.993 30.0786C157.022 30.7826 157.037 31.6039 157.037 32.5426V45.8306H149.117V33.8626C149.117 33.4812 149.117 32.9972 149.117 32.4106C149.117 31.8239 149.087 31.2372 149.029 30.6505C148.941 29.5359 148.589 28.6706 147.973 28.0546C147.357 27.4092 146.447 27.0865 145.245 27.0865C144.013 27.0865 143.015 27.7026 142.253 28.9346C141.49 30.1372 141.109 32.0732 141.109 34.7426V45.8306H133.189V22.3345H141.109V25.9865L143.221 23.0826C143.954 22.6426 144.746 22.3052 145.597 22.0706C146.447 21.8359 147.415 21.7185 148.501 21.7185C150.935 21.7185 152.842 22.2759 154.221 23.3905C155.629 24.4759 156.494 26.0452 156.817 28.0985ZM169.425 38.9666V45.8306H161.505V13.4906H169.425V32.1906L177.697 22.3345H186.981L177.037 33.1146L187.113 45.8306H177.389L171.097 37.1186L169.425 38.9666ZM193.266 12.7865C194.498 12.7865 195.48 13.1385 196.214 13.8425C196.976 14.5172 197.358 15.4559 197.358 16.6585C197.358 17.8612 196.976 18.8145 196.214 19.5185C195.48 20.1932 194.498 20.5305 193.266 20.5305C192.034 20.5305 191.036 20.1932 190.274 19.5185C189.54 18.8145 189.174 17.8612 189.174 16.6585C189.174 15.4559 189.54 14.5172 190.274 13.8425C191.036 13.1385 192.034 12.7865 193.266 12.7865ZM189.306 45.8306V22.3345H197.226V45.8306H189.306Z" fill="white"/>
<rect width="62.6087" height="62" rx="3" fill="url(#paint0_linear_108_9)"/>
<path d="M43 42.5651V49.6385H13V29.833H18.4545" stroke="white" stroke-miterlimit="10" stroke-linecap="round" stroke-linejoin="round"/>
<path d="M33.4715 45.525C31.3715 45.525 29.399 45.1575 27.554 44.4225C25.724 43.6725 24.1115 42.5775 22.7165 41.1375C21.3365 39.6975 20.2565 37.935 19.4765 35.85C18.6965 33.75 18.3065 31.35 18.3065 28.65C18.3065 25.11 18.9665 22.0875 20.2865 19.5825C21.6065 17.0625 23.414 15.135 25.709 13.8C28.004 12.45 30.5915 11.775 33.4715 11.775C37.4615 11.775 40.619 12.705 42.944 14.565C45.284 16.41 46.8665 19.005 47.6915 22.35L42.1565 23.2275C41.5415 21.3075 40.5365 19.7775 39.1415 18.6375C37.7465 17.4825 35.969 16.905 33.809 16.905C31.634 16.875 29.8265 17.3475 28.3865 18.3225C26.9465 19.2975 25.859 20.67 25.124 22.44C24.404 24.21 24.044 26.28 24.044 28.65C24.044 31.02 24.404 33.0825 25.124 34.8375C25.844 36.5775 26.924 37.935 28.364 38.91C29.819 39.885 31.634 40.3875 33.809 40.4175C35.444 40.4325 36.8765 40.14 38.1065 39.54C39.3365 38.925 40.3415 38.0025 41.1215 36.7725C41.9015 35.5275 42.4265 33.975 42.6965 32.115H36.9815V27.8625H48.4565C48.4865 28.1025 48.509 28.455 48.524 28.92C48.539 29.385 48.5465 29.6625 48.5465 29.7525C48.5465 32.8125 47.939 35.535 46.724 37.92C45.524 40.29 43.799 42.15 41.549 43.5C39.299 44.85 36.6065 45.525 33.4715 45.525Z" fill="white"/>
<defs>
<linearGradient id="paint0_linear_108_9" x1="0" y1="29.7083" x2="62.6087" y2="29.7083" gradientUnits="userSpaceOnUse">
<stop stop-color="#F9D224"/>
<stop offset="1" stop-color="#FE5A4C"/>
</linearGradient>
</defs>
</svg>
